<svg width="19" height="19" viewBox="0 0 19 19" fill="none" xmlns="http://www.w3.org/2000/svg">
<path d="M9.5 19C14.7467 19 19 14.7467 19 9.5C19 4.25329 14.7467 0 9.5 0C4.25329 0 0 4.25329 0 9.5C0 14.7467 4.25329 19 9.5 19Z" fill="white"/>
<mask id="mask0_10_107" style="mask-type:luminance" maskUnits="userSpaceOnUse" x="1" y="1" width="9" height="17">
<path d="M9.5258 17.9633C7.28808 17.9633 5.14197 17.0744 3.55963 15.492C1.9773 13.9097 1.08835 11.7636 1.08835 9.52578C1.08835 7.28806 1.97729 5.14195 3.55963 3.55961C5.14196 1.97727 7.28807 1.08833 9.5258 1.08832V9.52578V17.9633Z" fill="white"/>
</mask>
<g mask="url(#mask0_10_107)">
<path d="M9.5258 17.9633C7.28808 17.9633 5.14197 17.0744 3.55963 15.492C1.9773 13.9097 1.08835 11.7636 1.08835 9.52578C1.08835 7.28806 1.97729 5.14195 3.55963 3.55961C5.14196 1.97727 7.28807 1.08833 9.5258 1.08832V9.52578V17.9633Z" fill="#171E29" stroke="#171E29" stroke-width="2"/>
</g>
<mask id="mask1_10_107" style="mask-type:luminance" maskUnits="userSpaceOnUse" x="9" y="1" width="9" height="17">
<path d="M9.52591 1.08838C11.7636 1.08838 13.9097 1.97733 15.4921 3.55966C17.0744 5.142 17.9633 7.2881 17.9633 9.52591C17.9633 11.7636 17.0744 13.9097 15.4921 15.4921C13.9097 17.0744 11.7636 17.9633 9.52591 17.9634V9.52591V1.08838Z" fill="white"/>
</mask>
<g mask="url(#mask1_10_107)">
<path d="M9.52591 1.08838C11.7636 1.08838 13.9097 1.97733 15.4921 3.55966C17.0744 5.142 17.9633 7.2881 17.9633 9.52591C17.9633 11.7636 17.0744 13.9097 15.4921 15.4921C13.9097 17.0744 11.7636 17.9633 9.52591 17.9634V9.52591V1.08838Z" stroke="#171E29" stroke-width="2"/>
</g>
</svg>
